<?xml version="1.0" standalone="no"?>
<!DOCTYPE svg PUBLIC "-//W3C//DTD SVG 20010904//EN"
 "http://www.w3.org/TR/2001/REC-SVG-20010904/DTD/svg10.dtd">
<svg version="1.0" xmlns="http://www.w3.org/2000/svg"
 width="512.000000pt" height="512.000000pt" viewBox="0 0 512.000000 512.000000"
 preserveAspectRatio="xMidYMid meet">

<g transform="translate(0.000000,512.000000) scale(0.100000,-0.100000)"
fill="#000000" stroke="none">
<path d="M3200 5040 c-147 -21 -323 -71 -416 -118 -68 -34 -82 -112 -31 -160
40 -37 67 -36 173 3 166 62 257 78 439 78 170 0 239 -10 383 -59 309 -104 585
-357 713 -654 280 -652 -50 -1396 -719 -1620 -234 -78 -516 -80 -745 -5 -98
32 -110 31 -189 -5 -135 -61 -324 -91 -470 -76 l-65 7 33 82 c44 110 67 246
62 367 -4 93 -6 97 -61 200 -175 327 -193 695 -50 1035 41 99 42 128 4 166
-31 31 -83 39 -122 19 -60 -33 -155 -328 -175 -544 l-7 -78 -76 5 c-261 17
-591 -50 -846 -172 -829 -397 -1231 -1338 -941 -2205 95 -283 240 -511 462
-726 291 -282 642 -448 1044 -495 148 -18 241 -19 381 -5 231 24 408 74 614
175 274 134 496 317 667 553 l61 82 36 -7 c20 -5 385 -8 811 -8 741 0 777 1
813 19 45 22 91 66 115 110 15 28 17 75 20 426 3 347 1 400 -14 438 -23 61
-60 101 -119 128 l-50 24 -662 0 c-365 0 -663 2 -663 5 0 2 -7 54 -15 115 -9
61 -13 114 -11 119 3 5 27 12 53 16 139 20 354 110 507 212 294 196 512 521
591 883 22 102 31 342 16 453 -80 603 -520 1076 -1114 1198 -116 24 -335 33
-437 19z m-1231 -1566 c1 -1 10 -40 17 -86 21 -116 76 -275 136 -390 l51 -98
-6 -93 c-9 -130 -8 -130 -63 -106 -94 40 -166 53 -294 53 -145 1 -212 -14
-335 -73 -207 -99 -357 -279 -417 -498 -30 -112 -30 -289 0 -396 25 -88 68
-179 118 -250 19 -26 34 -50 34 -55 -1 -4 -22 -20 -48 -37 -70 -44 -197 -169
-264 -259 -76 -101 -151 -256 -180 -368 -13 -49 -26 -88 -29 -88 -12 0 -120
122 -174 195 -358 485 -413 1124 -144 1670 247 501 749 841 1304 884 87 7 283
4 294 -5z m-26 -933 c42 -11 89 -27 106 -35 l29 -16 -29 -52 c-38 -70 -37
-102 4 -142 28 -29 44 -35 132 -50 153 -26 147 -24 169 -86 26 -77 32 -217 12
-302 -25 -109 -72 -194 -151 -273 -228 -231 -587 -232 -814 -4 -227 228 -222
593 11 815 150 142 339 194 531 145z m1040 -241 c100 -28 239 -50 319 -50 l67
0 10 -37 c5 -21 13 -60 16 -88 3 -27 8 -61 11 -75 4 -23 0 -27 -38 -37 -104
-28 -167 -111 -176 -232 l-4 -67 -131 -84 c-162 -105 -184 -123 -192 -161 -13
-58 7 -81 171 -190 l154 -102 0 -62 c0 -58 -3 -66 -51 -136 -49 -70 -174 -224
-202 -248 -10 -8 -19 10 -40 85 -70 248 -234 483 -434 623 l-62 43 38 57 c92
136 131 249 138 407 4 81 1 132 -11 193 -9 46 -16 84 -14 85 2 1 37 8 78 14
41 7 118 28 170 46 52 19 98 34 103 35 4 0 40 -8 80 -19z m1935 -845 c2 -330
1 -361 -15 -372 -22 -17 -1463 -19 -1494 -3 -16 9 -19 22 -19 98 0 106 -2 107
-130 192 -52 34 -99 66 -104 70 -4 5 39 40 97 79 58 39 113 81 121 93 11 16
16 46 16 103 0 50 5 86 12 93 9 9 187 12 763 10 l750 -3 3 -360z m-3472 -154
c145 -73 260 -97 409 -88 119 8 191 27 300 82 l89 45 54 -33 c225 -135 393
-394 431 -662 7 -50 7 -73 -1 -83 -23 -27 -205 -127 -310 -170 -358 -145 -758
-158 -1124 -37 -93 30 -275 118 -356 172 -66 43 -69 52 -43 170 53 252 195
461 405 599 36 24 66 43 66 44 1 0 37 -18 80 -39z"/>
<path d="M3664 1535 c-90 -46 -59 -185 41 -185 47 0 71 14 91 52 44 85 -47
176 -132 133z"/>
<path d="M4114 1535 c-90 -46 -59 -185 41 -185 47 0 71 14 91 52 44 85 -47
176 -132 133z"/>
<path d="M4564 1535 c-90 -46 -59 -185 41 -185 47 0 71 14 91 52 44 85 -47
176 -132 133z"/>
<path d="M2413 4670 c-32 -13 -57 -57 -56 -98 1 -49 48 -92 99 -92 80 0 125
103 72 165 -25 28 -79 40 -115 25z"/>
<path d="M3437 4526 c-91 -34 -130 -90 -212 -306 -51 -136 -72 -180 -83 -180
-4 0 -17 15 -29 34 -12 18 -41 43 -65 55 -40 19 -61 21 -221 21 -127 0 -187
-4 -210 -14 -43 -17 -93 -76 -106 -123 -15 -51 -15 -835 0 -886 13 -47 63
-106 106 -123 23 -10 83 -14 208 -14 186 0 225 7 271 51 21 20 23 20 75 3 45
-15 102 -18 337 -22 263 -3 288 -2 350 17 143 43 251 146 306 289 19 52 21 77
21 272 0 211 0 216 -26 271 -36 76 -90 133 -157 166 -46 22 -73 28 -149 31
l-93 4 0 127 c0 90 -5 141 -16 174 -18 54 -74 115 -128 141 -51 24 -132 30
-179 12z m106 -204 c13 -14 16 -50 19 -204 l3 -188 28 -27 c27 -27 30 -28 170
-33 160 -6 182 -13 211 -73 23 -49 23 -332 0 -399 -21 -63 -78 -126 -138 -154
-49 -23 -59 -24 -301 -24 -231 1 -255 2 -315 23 l-65 22 0 279 0 279 38 13
c89 31 136 95 208 284 84 222 102 247 142 202z m-593 -752 l0 -380 -125 0
-125 0 0 380 0 380 125 0 125 0 0 -380z"/>
</g>
</svg>
